<mxfile host="app.diagrams.net" modified="2023-04-12T17:03:46.278Z" agent="Mozilla/5.0 (Macintosh; Intel Mac OS X 10_15_7) AppleWebKit/537.36 (KHTML, like Gecko) Chrome/112.0.0.0 Safari/537.36" etag="RibhymuTA164leaM_klM" version="21.1.6" type="github">
  <diagram name="Page-1" id="u6EofwE82MoI4p_kMzL1">
    <mxGraphModel dx="1747" dy="966" grid="1" gridSize="10" guides="1" tooltips="1" connect="1" arrows="1" fold="1" page="1" pageScale="1" pageWidth="850" pageHeight="1100" math="0" shadow="0">
      <root>
        <mxCell id="0" />
        <mxCell id="1" parent="0" />
        <mxCell id="vdz2abv_oUN0xk4Ib0JP-1" value="NODE0" style="rounded=0;whiteSpace=wrap;html=1;fillColor=#d5e8d4;strokeColor=#82b366;" vertex="1" parent="1">
          <mxGeometry x="80" y="200" width="80" height="40" as="geometry" />
        </mxCell>
        <mxCell id="vdz2abv_oUN0xk4Ib0JP-2" value="NODE1" style="rounded=0;whiteSpace=wrap;html=1;fillColor=#d5e8d4;strokeColor=#82b366;" vertex="1" parent="1">
          <mxGeometry x="200" y="200" width="80" height="40" as="geometry" />
        </mxCell>
        <mxCell id="vdz2abv_oUN0xk4Ib0JP-3" value="NODE2" style="rounded=0;whiteSpace=wrap;html=1;fillColor=#d5e8d4;strokeColor=#82b366;" vertex="1" parent="1">
          <mxGeometry x="320" y="200" width="80" height="40" as="geometry" />
        </mxCell>
        <mxCell id="vdz2abv_oUN0xk4Ib0JP-4" value="NODE3" style="rounded=0;whiteSpace=wrap;html=1;fillColor=#d5e8d4;strokeColor=#82b366;" vertex="1" parent="1">
          <mxGeometry x="440" y="200" width="80" height="40" as="geometry" />
        </mxCell>
        <mxCell id="vdz2abv_oUN0xk4Ib0JP-5" value="IB SWITCH L1 with SHARP&lt;br&gt;IN 8 * 4-&amp;gt;32. out 8" style="rounded=0;whiteSpace=wrap;html=1;fillColor=#f8cecc;strokeColor=#b85450;" vertex="1" parent="1">
          <mxGeometry x="80" y="320" width="440" height="50" as="geometry" />
        </mxCell>
        <mxCell id="vdz2abv_oUN0xk4Ib0JP-6" value="" style="endArrow=classic;html=1;rounded=0;exitX=0.5;exitY=1;exitDx=0;exitDy=0;entryX=0.092;entryY=-0.001;entryDx=0;entryDy=0;entryPerimeter=0;" edge="1" parent="1" source="vdz2abv_oUN0xk4Ib0JP-1" target="vdz2abv_oUN0xk4Ib0JP-5">
          <mxGeometry width="50" height="50" relative="1" as="geometry">
            <mxPoint x="400" y="610" as="sourcePoint" />
            <mxPoint x="450" y="560" as="targetPoint" />
          </mxGeometry>
        </mxCell>
        <mxCell id="vdz2abv_oUN0xk4Ib0JP-10" value="8xIB" style="edgeLabel;html=1;align=center;verticalAlign=middle;resizable=0;points=[];" vertex="1" connectable="0" parent="vdz2abv_oUN0xk4Ib0JP-6">
          <mxGeometry x="-0.0475" relative="1" as="geometry">
            <mxPoint as="offset" />
          </mxGeometry>
        </mxCell>
        <mxCell id="vdz2abv_oUN0xk4Ib0JP-7" value="8xIB" style="endArrow=classic;html=1;rounded=0;exitX=0.5;exitY=1;exitDx=0;exitDy=0;entryX=0.092;entryY=-0.001;entryDx=0;entryDy=0;entryPerimeter=0;" edge="1" parent="1">
          <mxGeometry width="50" height="50" relative="1" as="geometry">
            <mxPoint x="239.88" y="240" as="sourcePoint" />
            <mxPoint x="239.88" y="320" as="targetPoint" />
          </mxGeometry>
        </mxCell>
        <mxCell id="vdz2abv_oUN0xk4Ib0JP-8" value="" style="endArrow=classic;html=1;rounded=0;exitX=0.5;exitY=1;exitDx=0;exitDy=0;entryX=0.092;entryY=-0.001;entryDx=0;entryDy=0;entryPerimeter=0;" edge="1" parent="1">
          <mxGeometry width="50" height="50" relative="1" as="geometry">
            <mxPoint x="359.88" y="240" as="sourcePoint" />
            <mxPoint x="359.88" y="320" as="targetPoint" />
          </mxGeometry>
        </mxCell>
        <mxCell id="vdz2abv_oUN0xk4Ib0JP-11" value="8xIB" style="edgeLabel;html=1;align=center;verticalAlign=middle;resizable=0;points=[];" vertex="1" connectable="0" parent="vdz2abv_oUN0xk4Ib0JP-8">
          <mxGeometry x="-0.0011" relative="1" as="geometry">
            <mxPoint as="offset" />
          </mxGeometry>
        </mxCell>
        <mxCell id="vdz2abv_oUN0xk4Ib0JP-9" value="8xIB" style="endArrow=classic;html=1;rounded=0;exitX=0.5;exitY=1;exitDx=0;exitDy=0;entryX=0.092;entryY=-0.001;entryDx=0;entryDy=0;entryPerimeter=0;" edge="1" parent="1">
          <mxGeometry width="50" height="50" relative="1" as="geometry">
            <mxPoint x="479.88" y="240" as="sourcePoint" />
            <mxPoint x="479.88" y="320" as="targetPoint" />
          </mxGeometry>
        </mxCell>
        <mxCell id="vdz2abv_oUN0xk4Ib0JP-12" value="L2 SWITCH0" style="rounded=0;whiteSpace=wrap;html=1;fillColor=#e1d5e7;strokeColor=#9673a6;" vertex="1" parent="1">
          <mxGeometry x="80" y="560" width="200" height="40" as="geometry" />
        </mxCell>
        <mxCell id="vdz2abv_oUN0xk4Ib0JP-13" value="NODE0" style="rounded=0;whiteSpace=wrap;html=1;fillColor=#d5e8d4;strokeColor=#82b366;" vertex="1" parent="1">
          <mxGeometry x="560" y="200" width="80" height="40" as="geometry" />
        </mxCell>
        <mxCell id="vdz2abv_oUN0xk4Ib0JP-14" value="NODE1" style="rounded=0;whiteSpace=wrap;html=1;fillColor=#d5e8d4;strokeColor=#82b366;" vertex="1" parent="1">
          <mxGeometry x="680" y="200" width="80" height="40" as="geometry" />
        </mxCell>
        <mxCell id="vdz2abv_oUN0xk4Ib0JP-15" value="NODE2" style="rounded=0;whiteSpace=wrap;html=1;fillColor=#d5e8d4;strokeColor=#82b366;" vertex="1" parent="1">
          <mxGeometry x="800" y="200" width="80" height="40" as="geometry" />
        </mxCell>
        <mxCell id="vdz2abv_oUN0xk4Ib0JP-16" value="NODE3" style="rounded=0;whiteSpace=wrap;html=1;fillColor=#d5e8d4;strokeColor=#82b366;" vertex="1" parent="1">
          <mxGeometry x="920" y="200" width="80" height="40" as="geometry" />
        </mxCell>
        <mxCell id="vdz2abv_oUN0xk4Ib0JP-17" value="IB SWITCH L1 with SHARP&lt;br&gt;IN 8 * 4-&amp;gt;32. out 8" style="rounded=0;whiteSpace=wrap;html=1;fillColor=#f8cecc;strokeColor=#b85450;" vertex="1" parent="1">
          <mxGeometry x="560" y="320" width="440" height="50" as="geometry" />
        </mxCell>
        <mxCell id="vdz2abv_oUN0xk4Ib0JP-18" value="" style="endArrow=classic;html=1;rounded=0;exitX=0.5;exitY=1;exitDx=0;exitDy=0;entryX=0.092;entryY=-0.001;entryDx=0;entryDy=0;entryPerimeter=0;" edge="1" parent="1" source="vdz2abv_oUN0xk4Ib0JP-13" target="vdz2abv_oUN0xk4Ib0JP-17">
          <mxGeometry width="50" height="50" relative="1" as="geometry">
            <mxPoint x="880" y="610" as="sourcePoint" />
            <mxPoint x="930" y="560" as="targetPoint" />
          </mxGeometry>
        </mxCell>
        <mxCell id="vdz2abv_oUN0xk4Ib0JP-19" value="8xIB" style="edgeLabel;html=1;align=center;verticalAlign=middle;resizable=0;points=[];" vertex="1" connectable="0" parent="vdz2abv_oUN0xk4Ib0JP-18">
          <mxGeometry x="-0.0475" relative="1" as="geometry">
            <mxPoint as="offset" />
          </mxGeometry>
        </mxCell>
        <mxCell id="vdz2abv_oUN0xk4Ib0JP-20" value="8xIB" style="endArrow=classic;html=1;rounded=0;exitX=0.5;exitY=1;exitDx=0;exitDy=0;entryX=0.092;entryY=-0.001;entryDx=0;entryDy=0;entryPerimeter=0;" edge="1" parent="1">
          <mxGeometry width="50" height="50" relative="1" as="geometry">
            <mxPoint x="719.88" y="240" as="sourcePoint" />
            <mxPoint x="719.88" y="320" as="targetPoint" />
          </mxGeometry>
        </mxCell>
        <mxCell id="vdz2abv_oUN0xk4Ib0JP-21" value="" style="endArrow=classic;html=1;rounded=0;exitX=0.5;exitY=1;exitDx=0;exitDy=0;entryX=0.092;entryY=-0.001;entryDx=0;entryDy=0;entryPerimeter=0;" edge="1" parent="1">
          <mxGeometry width="50" height="50" relative="1" as="geometry">
            <mxPoint x="839.88" y="240" as="sourcePoint" />
            <mxPoint x="839.88" y="320" as="targetPoint" />
          </mxGeometry>
        </mxCell>
        <mxCell id="vdz2abv_oUN0xk4Ib0JP-22" value="8xIB" style="edgeLabel;html=1;align=center;verticalAlign=middle;resizable=0;points=[];" vertex="1" connectable="0" parent="vdz2abv_oUN0xk4Ib0JP-21">
          <mxGeometry x="-0.0011" relative="1" as="geometry">
            <mxPoint as="offset" />
          </mxGeometry>
        </mxCell>
        <mxCell id="vdz2abv_oUN0xk4Ib0JP-23" value="8xIB" style="endArrow=classic;html=1;rounded=0;exitX=0.5;exitY=1;exitDx=0;exitDy=0;entryX=0.092;entryY=-0.001;entryDx=0;entryDy=0;entryPerimeter=0;" edge="1" parent="1">
          <mxGeometry width="50" height="50" relative="1" as="geometry">
            <mxPoint x="959.88" y="240" as="sourcePoint" />
            <mxPoint x="959.88" y="320" as="targetPoint" />
          </mxGeometry>
        </mxCell>
        <mxCell id="vdz2abv_oUN0xk4Ib0JP-24" value="NODE0" style="rounded=0;whiteSpace=wrap;html=1;fillColor=#d5e8d4;strokeColor=#82b366;" vertex="1" parent="1">
          <mxGeometry x="1200" y="200" width="80" height="40" as="geometry" />
        </mxCell>
        <mxCell id="vdz2abv_oUN0xk4Ib0JP-25" value="NODE1" style="rounded=0;whiteSpace=wrap;html=1;fillColor=#d5e8d4;strokeColor=#82b366;" vertex="1" parent="1">
          <mxGeometry x="1320" y="200" width="80" height="40" as="geometry" />
        </mxCell>
        <mxCell id="vdz2abv_oUN0xk4Ib0JP-26" value="NODE2" style="rounded=0;whiteSpace=wrap;html=1;fillColor=#d5e8d4;strokeColor=#82b366;" vertex="1" parent="1">
          <mxGeometry x="1440" y="200" width="80" height="40" as="geometry" />
        </mxCell>
        <mxCell id="vdz2abv_oUN0xk4Ib0JP-27" value="NODE3" style="rounded=0;whiteSpace=wrap;html=1;fillColor=#d5e8d4;strokeColor=#82b366;" vertex="1" parent="1">
          <mxGeometry x="1560" y="200" width="80" height="40" as="geometry" />
        </mxCell>
        <mxCell id="vdz2abv_oUN0xk4Ib0JP-28" value="IB SWITCH L1 with SHARP&lt;br&gt;IN 8 * 4-&amp;gt;32. out 8" style="rounded=0;whiteSpace=wrap;html=1;fillColor=#f8cecc;strokeColor=#b85450;" vertex="1" parent="1">
          <mxGeometry x="1200" y="320" width="440" height="50" as="geometry" />
        </mxCell>
        <mxCell id="vdz2abv_oUN0xk4Ib0JP-29" value="" style="endArrow=classic;html=1;rounded=0;exitX=0.5;exitY=1;exitDx=0;exitDy=0;entryX=0.092;entryY=-0.001;entryDx=0;entryDy=0;entryPerimeter=0;" edge="1" parent="1" source="vdz2abv_oUN0xk4Ib0JP-24" target="vdz2abv_oUN0xk4Ib0JP-28">
          <mxGeometry width="50" height="50" relative="1" as="geometry">
            <mxPoint x="1520" y="610" as="sourcePoint" />
            <mxPoint x="1570" y="560" as="targetPoint" />
          </mxGeometry>
        </mxCell>
        <mxCell id="vdz2abv_oUN0xk4Ib0JP-30" value="8xIB" style="edgeLabel;html=1;align=center;verticalAlign=middle;resizable=0;points=[];" vertex="1" connectable="0" parent="vdz2abv_oUN0xk4Ib0JP-29">
          <mxGeometry x="-0.0475" relative="1" as="geometry">
            <mxPoint as="offset" />
          </mxGeometry>
        </mxCell>
        <mxCell id="vdz2abv_oUN0xk4Ib0JP-31" value="8xIB" style="endArrow=classic;html=1;rounded=0;exitX=0.5;exitY=1;exitDx=0;exitDy=0;entryX=0.092;entryY=-0.001;entryDx=0;entryDy=0;entryPerimeter=0;" edge="1" parent="1">
          <mxGeometry width="50" height="50" relative="1" as="geometry">
            <mxPoint x="1359.88" y="240" as="sourcePoint" />
            <mxPoint x="1359.88" y="320" as="targetPoint" />
          </mxGeometry>
        </mxCell>
        <mxCell id="vdz2abv_oUN0xk4Ib0JP-32" value="" style="endArrow=classic;html=1;rounded=0;exitX=0.5;exitY=1;exitDx=0;exitDy=0;entryX=0.092;entryY=-0.001;entryDx=0;entryDy=0;entryPerimeter=0;" edge="1" parent="1">
          <mxGeometry width="50" height="50" relative="1" as="geometry">
            <mxPoint x="1479.88" y="240" as="sourcePoint" />
            <mxPoint x="1479.88" y="320" as="targetPoint" />
          </mxGeometry>
        </mxCell>
        <mxCell id="vdz2abv_oUN0xk4Ib0JP-33" value="8xIB" style="edgeLabel;html=1;align=center;verticalAlign=middle;resizable=0;points=[];" vertex="1" connectable="0" parent="vdz2abv_oUN0xk4Ib0JP-32">
          <mxGeometry x="-0.0011" relative="1" as="geometry">
            <mxPoint as="offset" />
          </mxGeometry>
        </mxCell>
        <mxCell id="vdz2abv_oUN0xk4Ib0JP-34" value="8xIB" style="endArrow=classic;html=1;rounded=0;exitX=0.5;exitY=1;exitDx=0;exitDy=0;entryX=0.092;entryY=-0.001;entryDx=0;entryDy=0;entryPerimeter=0;" edge="1" parent="1">
          <mxGeometry width="50" height="50" relative="1" as="geometry">
            <mxPoint x="1599.88" y="240" as="sourcePoint" />
            <mxPoint x="1599.88" y="320" as="targetPoint" />
          </mxGeometry>
        </mxCell>
        <mxCell id="vdz2abv_oUN0xk4Ib0JP-35" value="" style="endArrow=classic;html=1;rounded=0;exitX=0.5;exitY=1;exitDx=0;exitDy=0;entryX=0.5;entryY=0;entryDx=0;entryDy=0;" edge="1" parent="1" source="vdz2abv_oUN0xk4Ib0JP-5" target="vdz2abv_oUN0xk4Ib0JP-12">
          <mxGeometry width="50" height="50" relative="1" as="geometry">
            <mxPoint x="770" y="530" as="sourcePoint" />
            <mxPoint x="820" y="480" as="targetPoint" />
          </mxGeometry>
        </mxCell>
        <mxCell id="vdz2abv_oUN0xk4Ib0JP-36" value="L2 SWITCH1" style="rounded=0;whiteSpace=wrap;html=1;fillColor=#e1d5e7;strokeColor=#9673a6;" vertex="1" parent="1">
          <mxGeometry x="360" y="560" width="200" height="40" as="geometry" />
        </mxCell>
        <mxCell id="vdz2abv_oUN0xk4Ib0JP-37" value="L2 SWITCH2" style="rounded=0;whiteSpace=wrap;html=1;fillColor=#e1d5e7;strokeColor=#9673a6;" vertex="1" parent="1">
          <mxGeometry x="640" y="560" width="200" height="40" as="geometry" />
        </mxCell>
        <mxCell id="vdz2abv_oUN0xk4Ib0JP-38" value="L2 SWITCH3" style="rounded=0;whiteSpace=wrap;html=1;fillColor=#e1d5e7;strokeColor=#9673a6;" vertex="1" parent="1">
          <mxGeometry x="920" y="560" width="200" height="40" as="geometry" />
        </mxCell>
        <mxCell id="vdz2abv_oUN0xk4Ib0JP-39" value="L2 SWITCH7" style="rounded=0;whiteSpace=wrap;html=1;fillColor=#e1d5e7;strokeColor=#9673a6;" vertex="1" parent="1">
          <mxGeometry x="1440" y="560" width="200" height="40" as="geometry" />
        </mxCell>
        <mxCell id="vdz2abv_oUN0xk4Ib0JP-40" value="" style="endArrow=classic;html=1;rounded=0;exitX=0.5;exitY=1;exitDx=0;exitDy=0;entryX=0.5;entryY=0;entryDx=0;entryDy=0;" edge="1" parent="1" source="vdz2abv_oUN0xk4Ib0JP-17" target="vdz2abv_oUN0xk4Ib0JP-12">
          <mxGeometry width="50" height="50" relative="1" as="geometry">
            <mxPoint x="310" y="380" as="sourcePoint" />
            <mxPoint x="190" y="570" as="targetPoint" />
          </mxGeometry>
        </mxCell>
        <mxCell id="vdz2abv_oUN0xk4Ib0JP-41" value="" style="endArrow=classic;html=1;rounded=0;exitX=0.5;exitY=1;exitDx=0;exitDy=0;entryX=0.5;entryY=0;entryDx=0;entryDy=0;" edge="1" parent="1" source="vdz2abv_oUN0xk4Ib0JP-28" target="vdz2abv_oUN0xk4Ib0JP-12">
          <mxGeometry width="50" height="50" relative="1" as="geometry">
            <mxPoint x="790" y="380" as="sourcePoint" />
            <mxPoint x="190" y="570" as="targetPoint" />
          </mxGeometry>
        </mxCell>
        <mxCell id="vdz2abv_oUN0xk4Ib0JP-42" value="" style="endArrow=classic;html=1;rounded=0;exitX=0.5;exitY=1;exitDx=0;exitDy=0;entryX=0.5;entryY=0;entryDx=0;entryDy=0;" edge="1" parent="1" source="vdz2abv_oUN0xk4Ib0JP-5" target="vdz2abv_oUN0xk4Ib0JP-36">
          <mxGeometry width="50" height="50" relative="1" as="geometry">
            <mxPoint x="790" y="380" as="sourcePoint" />
            <mxPoint x="190" y="570" as="targetPoint" />
          </mxGeometry>
        </mxCell>
        <mxCell id="vdz2abv_oUN0xk4Ib0JP-43" value="" style="endArrow=classic;html=1;rounded=0;exitX=0.5;exitY=1;exitDx=0;exitDy=0;entryX=0.5;entryY=0;entryDx=0;entryDy=0;" edge="1" parent="1" source="vdz2abv_oUN0xk4Ib0JP-17" target="vdz2abv_oUN0xk4Ib0JP-36">
          <mxGeometry width="50" height="50" relative="1" as="geometry">
            <mxPoint x="310" y="380" as="sourcePoint" />
            <mxPoint x="470" y="570" as="targetPoint" />
          </mxGeometry>
        </mxCell>
        <mxCell id="vdz2abv_oUN0xk4Ib0JP-44" value="" style="endArrow=classic;html=1;rounded=0;exitX=0.5;exitY=1;exitDx=0;exitDy=0;entryX=0.5;entryY=0;entryDx=0;entryDy=0;" edge="1" parent="1" source="vdz2abv_oUN0xk4Ib0JP-28" target="vdz2abv_oUN0xk4Ib0JP-36">
          <mxGeometry width="50" height="50" relative="1" as="geometry">
            <mxPoint x="790" y="380" as="sourcePoint" />
            <mxPoint x="470" y="570" as="targetPoint" />
          </mxGeometry>
        </mxCell>
        <mxCell id="vdz2abv_oUN0xk4Ib0JP-45" value="" style="endArrow=classic;html=1;rounded=0;exitX=0.5;exitY=1;exitDx=0;exitDy=0;entryX=0.5;entryY=0;entryDx=0;entryDy=0;" edge="1" parent="1" source="vdz2abv_oUN0xk4Ib0JP-5" target="vdz2abv_oUN0xk4Ib0JP-37">
          <mxGeometry width="50" height="50" relative="1" as="geometry">
            <mxPoint x="310" y="380" as="sourcePoint" />
            <mxPoint x="470" y="570" as="targetPoint" />
          </mxGeometry>
        </mxCell>
        <mxCell id="vdz2abv_oUN0xk4Ib0JP-46" value="" style="endArrow=classic;html=1;rounded=0;exitX=0.5;exitY=1;exitDx=0;exitDy=0;entryX=0.5;entryY=0;entryDx=0;entryDy=0;" edge="1" parent="1" source="vdz2abv_oUN0xk4Ib0JP-5" target="vdz2abv_oUN0xk4Ib0JP-38">
          <mxGeometry width="50" height="50" relative="1" as="geometry">
            <mxPoint x="310" y="380" as="sourcePoint" />
            <mxPoint x="750" y="570" as="targetPoint" />
          </mxGeometry>
        </mxCell>
        <mxCell id="vdz2abv_oUN0xk4Ib0JP-47" value="" style="endArrow=classic;html=1;rounded=0;entryX=0.5;entryY=0;entryDx=0;entryDy=0;" edge="1" parent="1" target="vdz2abv_oUN0xk4Ib0JP-37">
          <mxGeometry width="50" height="50" relative="1" as="geometry">
            <mxPoint x="780" y="370" as="sourcePoint" />
            <mxPoint x="470" y="570" as="targetPoint" />
          </mxGeometry>
        </mxCell>
        <mxCell id="vdz2abv_oUN0xk4Ib0JP-48" value="" style="endArrow=classic;html=1;rounded=0;entryX=0.5;entryY=0;entryDx=0;entryDy=0;exitX=0.5;exitY=1;exitDx=0;exitDy=0;" edge="1" parent="1" source="vdz2abv_oUN0xk4Ib0JP-28" target="vdz2abv_oUN0xk4Ib0JP-37">
          <mxGeometry width="50" height="50" relative="1" as="geometry">
            <mxPoint x="790" y="380" as="sourcePoint" />
            <mxPoint x="750" y="570" as="targetPoint" />
          </mxGeometry>
        </mxCell>
        <mxCell id="vdz2abv_oUN0xk4Ib0JP-49" value="" style="endArrow=classic;html=1;rounded=0;exitX=0.5;exitY=1;exitDx=0;exitDy=0;entryX=0.5;entryY=0;entryDx=0;entryDy=0;" edge="1" parent="1" source="vdz2abv_oUN0xk4Ib0JP-5" target="vdz2abv_oUN0xk4Ib0JP-39">
          <mxGeometry width="50" height="50" relative="1" as="geometry">
            <mxPoint x="310" y="380" as="sourcePoint" />
            <mxPoint x="1030" y="570" as="targetPoint" />
          </mxGeometry>
        </mxCell>
        <mxCell id="vdz2abv_oUN0xk4Ib0JP-50" value="" style="endArrow=classic;html=1;rounded=0;entryX=0.5;entryY=0;entryDx=0;entryDy=0;exitX=0.5;exitY=1;exitDx=0;exitDy=0;" edge="1" parent="1" source="vdz2abv_oUN0xk4Ib0JP-17" target="vdz2abv_oUN0xk4Ib0JP-38">
          <mxGeometry width="50" height="50" relative="1" as="geometry">
            <mxPoint x="790" y="380" as="sourcePoint" />
            <mxPoint x="750" y="570" as="targetPoint" />
          </mxGeometry>
        </mxCell>
        <mxCell id="vdz2abv_oUN0xk4Ib0JP-51" value="" style="endArrow=classic;html=1;rounded=0;entryX=0.5;entryY=0;entryDx=0;entryDy=0;exitX=0.5;exitY=1;exitDx=0;exitDy=0;" edge="1" parent="1" source="vdz2abv_oUN0xk4Ib0JP-17" target="vdz2abv_oUN0xk4Ib0JP-39">
          <mxGeometry width="50" height="50" relative="1" as="geometry">
            <mxPoint x="790" y="380" as="sourcePoint" />
            <mxPoint x="1030" y="570" as="targetPoint" />
          </mxGeometry>
        </mxCell>
        <mxCell id="vdz2abv_oUN0xk4Ib0JP-52" value="" style="endArrow=classic;html=1;rounded=0;entryX=0.5;entryY=0;entryDx=0;entryDy=0;exitX=0.5;exitY=1;exitDx=0;exitDy=0;" edge="1" parent="1" source="vdz2abv_oUN0xk4Ib0JP-28" target="vdz2abv_oUN0xk4Ib0JP-38">
          <mxGeometry width="50" height="50" relative="1" as="geometry">
            <mxPoint x="1430" y="380" as="sourcePoint" />
            <mxPoint x="750" y="570" as="targetPoint" />
          </mxGeometry>
        </mxCell>
        <mxCell id="vdz2abv_oUN0xk4Ib0JP-53" value="" style="endArrow=classic;html=1;rounded=0;entryX=0.5;entryY=0;entryDx=0;entryDy=0;exitX=0.5;exitY=1;exitDx=0;exitDy=0;" edge="1" parent="1" source="vdz2abv_oUN0xk4Ib0JP-28" target="vdz2abv_oUN0xk4Ib0JP-39">
          <mxGeometry width="50" height="50" relative="1" as="geometry">
            <mxPoint x="1430" y="380" as="sourcePoint" />
            <mxPoint x="1030" y="570" as="targetPoint" />
          </mxGeometry>
        </mxCell>
      </root>
    </mxGraphModel>
  </diagram>
</mxfile>
